<?xml version="1.0" encoding="UTF-8" standalone="no"?>
<!DOCTYPE svg PUBLIC "-//W3C//DTD SVG 1.1//EN" "http://www.w3.org/Graphics/SVG/1.1/DTD/svg11.dtd">
<svg width="100%" height="100%" viewBox="0 0 1056 301" version="1.1" xmlns="http://www.w3.org/2000/svg" xmlns:xlink="http://www.w3.org/1999/xlink" xml:space="preserve" xmlns:serif="http://www.serif.com/" style="fill-rule:evenodd;clip-rule:evenodd;stroke-linejoin:round;stroke-miterlimit:2;">
    <g transform="matrix(1,0,0,1,0,-328)">
        <g id="Artboard3" transform="matrix(1.74932,0,0,0.74237,53.5439,-87.1625)">
            <rect x="-30.608" y="560.409" width="603.608" height="404.111" style="fill:none;"/>
            <g transform="matrix(0.552172,-0.348639,0.147954,1.30114,-559.187,210.66)">
                <g transform="matrix(0.322917,0,0,0.350679,762.303,221.47)">
                    <path d="M199.644,1187.2L455.677,1591.36L931.166,1591.36L1132.33,1288.24L1333.5,1321.92L1132.33,1170.36L858.014,1321.92L583.693,985.116L492.253,1355.6L199.644,1187.2Z" style="fill:white;"/>
                </g>
                <path d="M1086.77,740.619L1084.2,744.818L1039.37,685.039L1055.27,675.498L1086.77,740.619Z" style="fill:rgb(217,209,250);"/>
                <path d="M1127.95,673.228L1121.13,684.397L1073.62,664.488L1075.08,663.615L1127.95,673.228Z" style="fill:rgb(217,209,250);"/>
                <path d="M921.26,696.85L904.426,770.918L901.181,765.354L904.165,686.166L921.26,696.85Z" style="fill:rgb(217,209,250);"/>
            </g>
            <g transform="matrix(0.57165,0,0,1.34704,-156.657,-4310.36)">
                <g transform="matrix(173.814,0,0,173.814,644.853,3840.27)">
                    <path d="M0.728,-0.483C0.728,-0.418 0.71,-0.362 0.675,-0.315C0.64,-0.268 0.591,-0.235 0.528,-0.216L0.65,-0L0.479,-0L0.369,-0.196L0.231,-0.196L0.192,-0L0.029,-0L0.169,-0.7L0.454,-0.7C0.541,-0.7 0.608,-0.681 0.656,-0.643C0.704,-0.605 0.728,-0.552 0.728,-0.483ZM0.394,-0.325C0.448,-0.325 0.49,-0.337 0.52,-0.362C0.549,-0.387 0.564,-0.422 0.564,-0.468C0.564,-0.501 0.553,-0.526 0.53,-0.543C0.507,-0.56 0.475,-0.568 0.433,-0.568L0.305,-0.568L0.256,-0.325L0.394,-0.325Z" style="fill:white;fill-rule:nonzero;"/>
                </g>
                <g transform="matrix(173.814,0,0,173.814,772.606,3840.27)">
                    <path d="M0.603,-0.309C0.603,-0.284 0.6,-0.257 0.594,-0.227L0.182,-0.227C0.187,-0.154 0.234,-0.117 0.321,-0.117C0.348,-0.117 0.375,-0.121 0.4,-0.13C0.425,-0.139 0.446,-0.151 0.465,-0.167L0.53,-0.064C0.5,-0.04 0.466,-0.022 0.427,-0.01C0.388,0.002 0.348,0.008 0.305,0.008C0.25,0.008 0.201,-0.002 0.16,-0.022C0.118,-0.041 0.086,-0.069 0.064,-0.106C0.041,-0.143 0.03,-0.185 0.03,-0.233C0.03,-0.292 0.044,-0.346 0.071,-0.394C0.097,-0.441 0.135,-0.479 0.183,-0.506C0.231,-0.533 0.286,-0.546 0.347,-0.546C0.399,-0.546 0.444,-0.536 0.483,-0.517C0.521,-0.498 0.551,-0.47 0.572,-0.434C0.592,-0.398 0.603,-0.356 0.603,-0.309ZM0.34,-0.429C0.303,-0.429 0.272,-0.419 0.247,-0.4C0.222,-0.38 0.204,-0.353 0.193,-0.318L0.46,-0.318C0.46,-0.353 0.449,-0.38 0.428,-0.4C0.406,-0.419 0.377,-0.429 0.34,-0.429Z" style="fill:white;fill-rule:nonzero;"/>
                </g>
                <g transform="matrix(173.814,0,0,173.814,881.762,3840.27)">
                    <path d="M0.384,-0.627C0.36,-0.627 0.341,-0.62 0.328,-0.608C0.314,-0.595 0.304,-0.574 0.299,-0.546L0.295,-0.526L0.432,-0.526L0.408,-0.406L0.275,-0.406L0.194,-0L0.038,-0L0.119,-0.406L0.035,-0.406L0.059,-0.526L0.143,-0.526L0.149,-0.557C0.162,-0.617 0.188,-0.664 0.228,-0.699C0.267,-0.733 0.319,-0.75 0.383,-0.75C0.407,-0.75 0.43,-0.747 0.452,-0.742C0.473,-0.737 0.492,-0.729 0.507,-0.72L0.446,-0.608C0.429,-0.621 0.409,-0.627 0.384,-0.627Z" style="fill:white;fill-rule:nonzero;"/>
                </g>
                <g transform="matrix(173.814,0,0,173.814,947.811,3840.27)">
                    <path d="M0.3,0.008C0.246,0.008 0.199,-0.002 0.158,-0.022C0.117,-0.042 0.085,-0.07 0.063,-0.107C0.04,-0.143 0.029,-0.185 0.029,-0.233C0.029,-0.292 0.043,-0.346 0.071,-0.393C0.099,-0.44 0.138,-0.478 0.187,-0.505C0.236,-0.532 0.292,-0.546 0.354,-0.546C0.409,-0.546 0.456,-0.536 0.497,-0.516C0.538,-0.496 0.569,-0.468 0.592,-0.432C0.614,-0.395 0.625,-0.353 0.625,-0.305C0.625,-0.246 0.611,-0.192 0.584,-0.145C0.556,-0.098 0.517,-0.06 0.468,-0.033C0.418,-0.006 0.362,0.008 0.3,0.008ZM0.31,-0.121C0.34,-0.121 0.367,-0.129 0.391,-0.144C0.415,-0.159 0.434,-0.179 0.447,-0.206C0.46,-0.233 0.467,-0.263 0.467,-0.298C0.467,-0.335 0.456,-0.364 0.435,-0.385C0.414,-0.406 0.384,-0.417 0.345,-0.417C0.314,-0.417 0.287,-0.409 0.263,-0.395C0.239,-0.38 0.22,-0.359 0.207,-0.332C0.194,-0.305 0.187,-0.275 0.187,-0.24C0.187,-0.203 0.198,-0.174 0.22,-0.153C0.241,-0.132 0.271,-0.121 0.31,-0.121Z" style="fill:white;fill-rule:nonzero;"/>
                </g>
                <g transform="matrix(173.814,0,0,173.814,1061.49,3840.27)">
                    <path d="M0.167,-0.742L0.323,-0.742L0.175,-0L0.019,-0L0.167,-0.742Z" style="fill:white;fill-rule:nonzero;"/>
                </g>
                <g transform="matrix(173.814,0,0,173.814,1113.8,3840.27)">
                    <path d="M0.714,-0.742L0.566,-0L0.418,-0L0.429,-0.054C0.384,-0.013 0.329,0.008 0.264,0.008C0.222,0.008 0.183,-0.002 0.148,-0.021C0.113,-0.04 0.085,-0.068 0.064,-0.105C0.043,-0.141 0.032,-0.184 0.032,-0.233C0.032,-0.292 0.045,-0.346 0.072,-0.394C0.098,-0.441 0.134,-0.479 0.179,-0.506C0.224,-0.533 0.274,-0.546 0.329,-0.546C0.368,-0.546 0.403,-0.539 0.433,-0.526C0.462,-0.513 0.486,-0.493 0.503,-0.467L0.558,-0.742L0.714,-0.742ZM0.312,-0.121C0.343,-0.121 0.37,-0.129 0.394,-0.144C0.418,-0.159 0.437,-0.179 0.45,-0.206C0.463,-0.233 0.47,-0.263 0.47,-0.298C0.47,-0.335 0.459,-0.364 0.438,-0.385C0.416,-0.406 0.386,-0.417 0.347,-0.417C0.316,-0.417 0.289,-0.409 0.265,-0.395C0.241,-0.38 0.222,-0.359 0.209,-0.332C0.196,-0.305 0.189,-0.275 0.189,-0.24C0.189,-0.203 0.2,-0.174 0.222,-0.153C0.243,-0.132 0.273,-0.121 0.312,-0.121Z" style="fill:white;fill-rule:nonzero;"/>
                </g>
            </g>
        </g>
    </g>
</svg>
